<svg width="183" height="183" viewBox="0 0 183 183" fill="none" xmlns="http://www.w3.org/2000/svg">
<path d="M82.1683 103.881C82.7832 103.372 83.3842 102.875 83.9751 102.455C86.9482 100.341 88.4818 94.5197 87.0057 92.0373C85.5303 89.5542 74.0738 88.8384 72.0754 91.7974C69.7481 95.24 69.8396 103.916 73.8058 106.279C76.9828 108.173 79.6884 105.934 82.1683 103.881Z" fill="#FF5550"/>
<path d="M90.898 111.838C91.9139 112.538 94.1823 113.955 94.5471 112.878C95.021 111.484 92.0603 102.785 91.706 102.084C91.602 101.874 91.4438 101.695 91.2739 101.566C91.1882 101.429 91.0667 101.373 90.9254 101.387C90.9156 101.385 90.9078 101.388 90.8986 101.387C90.8941 101.388 90.89 101.387 90.886 101.387C90.8815 101.386 90.8771 101.386 90.8718 101.387C90.7306 101.373 90.609 101.428 90.5241 101.565C90.3547 101.695 90.1959 101.874 90.09 102.084C89.7337 102.786 86.775 111.483 87.2483 112.878C87.6137 113.956 89.8834 112.538 90.898 111.838Z" fill="#FF5550"/>
<path d="M100.15 103.742C102.763 105.626 105.614 107.683 108.655 105.587C112.449 102.968 111.954 94.3067 109.401 91.0225C107.206 88.2021 95.8231 89.6652 94.5196 92.238C93.2135 94.8121 95.1367 100.523 98.2484 102.436C98.8672 102.816 99.5014 103.274 100.15 103.742Z" fill="#FF5550"/>
<path fill-rule="evenodd" clip-rule="evenodd" d="M152.814 30.1856H30.1856V152.814H152.814V30.1856ZM63.054 93.5158C58.6303 77.1006 73.3031 60.3711 90.6097 60.3711C107.916 60.3711 122.158 78.243 118.184 94.7685C117.445 97.8372 116.649 100.654 115.749 103.227C115.788 103.26 115.829 103.288 115.87 103.317C115.919 103.35 115.967 103.384 116.011 103.424C118.436 105.609 117.533 110.286 115.465 112.492C114.169 113.875 111.171 116.324 108.808 117.102C107.782 116.902 100.556 115.726 101.465 122.743C101.024 122.922 100.569 123.082 100.102 123.233V121.212H99.2879V123.48C98.2484 123.771 97.1567 123.997 96.0199 124.161V121.211H95.204V124.276C94.1097 124.406 92.9723 124.476 91.8125 124.5V121.211H90.9987V124.515H90.9686C89.803 124.515 88.6682 124.46 87.5614 124.357V121.212H86.7488V124.279C85.5545 124.137 84.4085 123.925 83.3129 123.651V121.212H82.4977V123.432C81.8211 123.236 81.1647 123.019 80.5378 122.769C80.8725 117.154 75.4643 117.453 73.6156 117.719C71.3301 116.808 68.6061 114.57 67.3869 113.268C65.3989 111.145 64.4961 106.745 66.5854 104.467C65.2656 101.184 64.1307 97.5146 63.054 93.5158Z" fill="#FF5550"/>
<path fill-rule="evenodd" clip-rule="evenodd" d="M0 0H183V183H0V0ZM24.5258 24.5258V158.474H158.474V24.5258H24.5258Z" fill="#FF5550"/>
</svg>
