<svg width="263" height="169" viewBox="0 0 263 169" fill="none" xmlns="http://www.w3.org/2000/svg">
<rect width="263" height="168.148" rx="5" fill="#FF504E"/>
<path d="M200.232 43.0049C178.23 43.0049 159.576 63.8901 165.2 84.3829C166.569 89.375 168.011 93.9563 169.689 98.0539C167.033 100.898 168.181 106.391 170.708 109.042C172.258 110.667 175.721 113.461 178.627 114.598C180.977 114.267 187.853 113.893 187.427 120.903C188.224 121.215 189.059 121.486 189.919 121.731V118.959H190.955V122.004C192.348 122.346 193.805 122.611 195.324 122.788V118.959H196.357V122.885C197.764 123.014 199.207 123.083 200.688 123.083C200.701 123.083 200.714 123.083 200.727 123.083V118.958H201.761V123.064C203.236 123.034 204.682 122.947 206.073 122.785V118.958H207.11V122.641C208.556 122.435 209.943 122.154 211.265 121.791V118.959H212.3V121.482C212.894 121.293 213.472 121.094 214.033 120.87C212.877 112.111 222.063 113.578 223.368 113.829C226.372 112.857 230.183 109.799 231.831 108.073C234.46 105.319 235.608 99.4801 232.525 96.7518C232.421 96.6598 232.301 96.5957 232.192 96.506C233.337 93.2949 234.348 89.7778 235.288 85.9469C240.341 65.3163 222.234 43.0049 200.232 43.0049ZM191.797 95.5427C188.017 98.182 183.909 103.268 178.869 100.317C173.827 97.366 173.71 86.5355 176.669 82.2377C179.21 78.5436 193.774 79.4373 195.65 82.5371C197.527 85.6362 195.577 92.9033 191.797 95.5427ZM205.238 108.555C204.774 109.9 201.89 108.131 200.599 107.257C199.309 108.131 196.423 109.901 195.959 108.555C195.357 106.814 199.118 95.9559 199.571 95.079C199.706 94.818 199.908 94.5945 200.123 94.432C200.231 94.2606 200.386 94.1925 200.565 94.2094C200.578 94.207 200.587 94.211 200.599 94.2094C200.611 94.211 200.621 94.207 200.634 94.2094C200.813 94.1925 200.968 94.2614 201.076 94.4328C201.293 94.5937 201.494 94.8172 201.626 95.079C202.076 95.9551 205.84 106.814 205.238 108.555ZM223.174 99.4529C218.347 102.719 213.897 97.9066 209.943 95.5186C205.987 93.1307 203.542 86.0013 205.203 82.7878C206.86 79.5758 221.332 77.7493 224.122 81.2703C227.367 85.3703 227.997 96.1833 223.174 99.4529Z" fill="#150712"/>
</svg>
