<svg width="167" height="167" viewBox="0 0 167 167" fill="none" xmlns="http://www.w3.org/2000/svg">
<rect x="1.5" y="1.49902" width="164" height="164" rx="26.5" stroke="#FF5550" stroke-width="3"/>
<path d="M23 81.352V68.999H28.4299V74.3637L35.8145 68.999H43.2715L36.4842 73.9226L46.7104 81.352H39.2534L32.7557 76.6402L28.4299 79.7814V81.352H23Z" fill="#FF5550"/>
<path d="M47.0561 81.352V68.999H52.486V76.6226L62.9656 68.999H69.4996V81.352H64.0697V73.6049L53.4091 81.352H47.0561Z" fill="#FF5550"/>
<path d="M91.4198 73.4108C92.2765 73.4108 92.9885 73.6108 93.5556 74.0108C94.1227 74.399 94.545 74.8873 94.8225 75.4755C95.1121 76.0637 95.2569 76.699 95.2569 77.3814C95.2569 78.0637 95.1121 78.699 94.8225 79.2873C94.545 79.8755 94.1227 80.3696 93.5556 80.7696C92.9885 81.1578 92.2765 81.352 91.4198 81.352H71.8723V68.999H93.9538V72.5284H77.3022V73.4108H91.4198ZM77.3022 76.9402V77.8226H89.8271C89.996 77.8226 90.1227 77.7755 90.2072 77.6814C90.2916 77.5873 90.3339 77.4873 90.3339 77.3814C90.3339 77.2755 90.2916 77.1755 90.2072 77.0814C90.1227 76.9873 89.996 76.9402 89.8271 76.9402H77.3022Z" fill="#FF5550"/>
<path d="M101.606 77.8226H117.533V81.352H96.1759V68.999H116.628V72.5284H101.606V73.4108H114.094V76.9402H101.606V77.8226Z" fill="#FF5550"/>
<path d="M124.955 76.9402V81.352H119.525V68.999H138.421C139.422 68.999 140.255 69.199 140.919 69.599C141.594 69.9873 142.101 70.4755 142.439 71.0637C142.777 71.652 142.946 72.2873 142.946 72.9696C142.946 73.652 142.777 74.2873 142.439 74.8755C142.101 75.4637 141.594 75.9578 140.919 76.3578C140.255 76.7461 139.422 76.9402 138.421 76.9402H124.955ZM137.679 73.4108C137.824 73.4108 137.932 73.3637 138.005 73.2696C138.077 73.1755 138.113 73.0755 138.113 72.9696C138.113 72.8637 138.077 72.7637 138.005 72.6696C137.932 72.5755 137.824 72.5284 137.679 72.5284H124.955V73.4108H137.679Z" fill="#FF5550"/>
<path d="M23 98.999V84.8814H29.179V94.9654H37.1087V84.8814H43.2877V94.9654H51.2175V84.8814H57.3965V98.999H23Z" fill="#FF5550"/>
<path d="M70.172 88.915H59.6677V84.8814H86.8554V88.915H76.3511V98.999H70.172V88.915Z" fill="#FF5550"/>
<path d="M105.293 93.957H94.4802L91.4936 98.999H84.3878L92.6882 84.8814H107.065L115.365 98.999H108.259L105.293 93.957ZM102.904 89.9234L102.307 88.915H97.4461L96.8488 89.9234H102.904Z" fill="#FF5550"/>
<path d="M138.634 89.9234C139.608 89.9234 140.419 90.152 141.064 90.6091C141.709 91.0528 142.19 91.6108 142.506 92.2831C142.835 92.9553 143 93.6814 143 94.4612C143 95.241 142.835 95.9671 142.506 96.6394C142.19 97.3116 141.709 97.8763 141.064 98.3335C140.419 98.7772 139.608 98.999 138.634 98.999H116.389V84.8814H141.517V88.915H122.568V89.9234H138.634ZM122.568 93.957V94.9654H136.821C137.013 94.9654 137.157 94.9116 137.254 94.8041C137.35 94.6965 137.398 94.5822 137.398 94.4612C137.398 94.3402 137.35 94.2259 137.254 94.1184C137.157 94.0108 137.013 93.957 136.821 93.957H122.568Z" fill="#FF5550"/>
</svg>
