<svg width="151" height="152" viewBox="0 0 151 152" fill="none" xmlns="http://www.w3.org/2000/svg">
<path d="M151 76.0996C151 91.0321 146.572 105.629 138.276 118.045C129.98 130.461 118.188 140.138 104.393 145.852C90.5968 151.567 75.4163 153.062 60.7707 150.149C46.1251 147.236 32.6723 140.045 22.1135 129.486C11.5546 118.927 4.36393 105.474 1.45074 90.8289C-1.46244 76.1833 0.0327125 61.0028 5.74713 47.207C11.4615 33.4112 21.1386 21.6197 33.5545 13.3236C45.9704 5.02761 60.5675 0.599609 75.5 0.599609C95.5239 0.599609 114.728 8.55405 128.887 22.713C143.046 36.872 151 56.0757 151 76.0996ZM122.971 76.1562C122.971 66.7674 120.187 57.5895 114.97 49.783C109.754 41.9765 102.34 35.892 93.6662 32.2991C84.9921 28.7061 75.4474 27.7661 66.239 29.5977C57.0306 31.4294 48.5721 35.9505 41.9332 42.5894C35.2943 49.2283 30.7732 57.6868 28.9415 66.8952C27.1099 76.1036 28.0499 85.6483 31.6429 94.3224C35.2358 102.997 41.3203 110.41 49.1268 115.627C56.9333 120.843 66.1112 123.627 75.5 123.627C81.7339 123.627 87.9068 122.399 93.6662 120.013C99.4256 117.628 104.659 114.131 109.067 109.723C113.475 105.315 116.972 100.082 119.357 94.3224C121.743 88.563 122.971 82.3901 122.971 76.1562ZM53.2936 72.3812H35.7587C36.4447 65.208 39.0563 58.3535 43.3175 52.5424C47.5786 46.7313 53.3308 42.1797 59.9659 39.3688C60.5951 39.1046 61.2242 38.8561 61.8534 38.6233C56.3068 49.016 53.3692 60.6012 53.2936 72.3812ZM53.2936 79.9312C53.3713 91.7121 56.3122 103.297 61.8628 113.689C61.2211 113.456 60.5888 113.208 59.9659 112.944C53.3237 110.143 47.565 105.594 43.3024 99.7811C39.0398 93.968 36.4328 87.1081 35.7587 79.9312H53.2936ZM60.8436 72.3812C61.0107 67.9374 61.5251 63.5135 62.3819 59.1498C63.2391 54.5457 64.6492 50.0619 66.5816 45.7958C69.309 39.9917 72.8103 36.2356 75.5 36.2356C78.1897 36.2356 81.691 39.9917 84.4184 45.7958C86.3494 50.0624 87.7595 54.546 88.6181 59.1498C89.4735 63.5137 89.9878 67.9375 90.1565 72.3812H60.8436ZM90.1565 79.9312C89.988 84.3749 89.4737 88.7988 88.6181 93.1626C87.7588 97.7663 86.3488 102.25 84.4184 106.517C81.691 112.33 78.1897 116.077 75.5 116.077C72.8103 116.077 69.309 112.33 66.5816 106.517C64.6499 102.25 63.2399 97.7666 62.3819 93.1626C61.5249 88.799 61.0106 84.375 60.8436 79.9312H90.1565ZM103.728 47.9287C110.304 54.4841 114.378 63.1355 115.241 72.3812H97.7064C97.6295 60.6002 94.6885 49.0147 89.1372 38.6233C89.7789 38.8561 90.4113 39.1077 91.0341 39.3783C95.7796 41.3784 100.091 44.2825 103.728 47.9287ZM97.7064 79.9312H115.241C114.554 87.1041 111.942 93.9582 107.681 99.7691C103.42 105.58 97.6686 110.132 91.0341 112.944C90.405 113.214 89.7758 113.466 89.1466 113.699C94.6965 103.304 97.6343 91.7147 97.7064 79.9312Z" fill="#FF5550"/>
</svg>
